<svg width="128" height="128" viewBox="0 0 128 128" fill="none" xmlns="http://www.w3.org/2000/svg">
<path d="M63.7425 0.0172356C87.9134 0.576002 111.743 14.7102 122.257 37.6041C124.198 41.8314 125.655 46.2771 126.623 50.8265C127.627 55.5475 128.078 60.3418 127.989 65.1679C127.903 69.7631 127.28 74.3257 126.23 78.7995C125.222 83.098 123.8 87.2995 121.955 91.3107C120.714 94.0098 119.3 96.666 117.651 99.1409C113.416 105.681 108.026 111.369 101.722 115.941C98.3996 118.35 94.8344 120.387 91.1118 122.103C83.7751 125.484 75.9037 127.45 67.8571 127.895L66.6029 127.933C66.5541 127.935 66.4284 127.995 66.4417 127.999H61.7591C61.7865 128.009 61.6741 127.939 61.6541 127.938L60.3467 127.9C41.4085 126.799 23.6551 117.664 12.4013 102.252C7.17367 95.4989 3.47908 87.7183 1.53269 79.3975C-1.07187 68.2629 -0.17336 56.7864 2.84458 45.8412C3.31121 44.1487 3.85327 42.4768 4.48629 40.839C9.21842 28.6061 17.4218 17.8052 28.249 10.3703C39.0244 2.97166 51.4274 -0.267698 63.7425 0.0172356ZM72.269 38.2768C72.3238 38.6772 72.7771 38.8082 73.0433 38.7327C73.4367 38.6217 73.7836 38.4566 74.1126 38.2413C76.2232 36.8588 78.9328 37.0312 80.4709 39.1671C81.1165 40.0641 81.5307 41.0662 81.8161 42.1578C82.2487 43.8141 82.6029 45.432 82.8773 47.1312L83.9023 53.4797L84.959 59.8059C85.0492 60.3469 85.416 61.5037 86.1519 61.2069L87.148 60.8051C88.0605 60.4365 89.1114 60.6504 90.1489 60.6489L101.493 60.6378L115.318 60.6637C116.088 60.6652 116.187 59.5513 116.148 59.0947C115.252 48.618 111.184 38.6942 104.499 30.5858C97.3613 21.9283 87.6324 15.7189 76.7727 12.8925C66.7619 10.2874 56.2461 10.7522 46.4993 14.2106C42.1902 15.7397 38.0911 17.8134 34.3203 20.4259C21.5971 29.2426 12.6771 43.5536 11.7372 59.1606C11.7128 59.5706 11.7631 59.931 11.9228 60.27C12.0596 60.5608 12.3355 60.6556 12.6675 60.6556L27.9739 60.6533L33.2976 60.6578C33.9358 60.6578 34.256 60.3085 34.4586 59.7408L41.1453 40.9988C41.8352 39.0642 45.9329 37.3709 48.6062 39.8177C49.2274 40.386 49.856 41.2164 49.9906 42.0986L52.9708 61.6199C53.0166 61.9226 53.3649 62.044 53.5809 62.0521C53.7842 62.0595 54.1732 61.9936 54.2294 61.6954L61.4197 23.4232C61.4907 23.0443 61.8619 22.7512 62.0963 22.5011C63.2374 21.2844 64.817 20.716 66.5216 21.0091C67.9651 21.2577 69.3132 22.2236 70.0313 23.6401C70.242 24.056 70.3825 24.4298 70.4491 24.9204L72.2668 38.2775L72.269 38.2768ZM26.8942 101.53C34.1695 108.644 43.3357 113.561 53.288 115.677C61.0462 117.326 69.0418 117.163 76.7283 115.225C81.1469 114.111 85.3916 112.428 89.3599 110.187C103.296 102.312 113.497 88.2845 115.768 72.3386C115.856 71.7139 115.974 70.2293 115.034 70.2293H93.2068C92.6418 70.2293 92.3031 71.1389 92.2003 71.543L90.6385 77.7064C90.2081 79.4035 89.7725 81.0272 89.2046 82.6724C88.9842 83.3119 88.7313 83.8906 88.3608 84.439C87.1509 86.2308 85.0086 86.9923 82.9232 86.344C81.3073 85.8415 79.8904 84.5545 79.571 82.8241L74.9586 57.8373C74.8854 57.4406 74.5807 57.2578 74.1858 57.3688C73.4094 57.5872 73.0758 58.4745 71.9821 59.1665C70.1762 60.3085 67.8889 60.0072 66.4358 58.456C66.1496 58.1504 65.8508 57.915 65.4581 57.7426C65.2629 57.6567 64.7127 57.6693 64.6558 57.9853L57.5957 96.8903C57.3191 98.4126 56.1987 99.7189 54.8913 100.424C53.464 101.195 51.7935 101.088 50.4343 100.28C49.1971 99.5442 48.3466 98.3778 47.9628 96.9887L43.718 66.6214C43.6855 66.3898 43.3498 66.2743 43.1982 66.2743C41.8841 66.2773 42.1732 68.7048 39.8792 69.7209C39.0917 70.0702 38.307 70.233 37.4108 70.233L16.2926 70.2242L12.3162 70.2723C11.9812 70.2767 11.8755 70.7592 11.9051 71.0331C13.1807 82.6902 18.5266 93.3467 26.8957 101.531L26.8942 101.53Z" fill="white"/>
</svg>
