<svg width="128" height="128" viewBox="0 0 128 128" fill="none" xmlns="http://www.w3.org/2000/svg">
<path d="M76.915 83.8406C74.2198 83.8406 71.7829 83.4024 69.6041 82.5265C67.4478 81.628 65.6059 80.3814 64.0787 78.7867C62.5737 77.192 61.4172 75.3164 60.6084 73.1601C59.7999 71.0039 59.3955 68.6793 59.3955 66.1861V64.8387C59.3955 61.986 59.811 59.4031 60.6421 57.0896C61.4732 54.7762 62.6301 52.7994 64.1124 51.1599C65.5948 49.4977 67.3466 48.2285 69.3683 47.3526C71.3896 46.4767 73.5796 46.0389 75.9379 46.0389C78.5434 46.0389 80.8235 46.4767 82.7773 47.3526C84.7315 48.2285 86.3488 49.464 87.6288 51.0587C88.9317 52.6311 89.8973 54.5064 90.5264 56.6852C91.1777 58.8641 91.5035 61.2672 91.5035 63.8953V67.3653H63.3373V61.5367H83.4849V60.8965C83.4401 59.4368 83.148 58.0664 82.609 56.7864C82.0923 55.5061 81.295 54.4726 80.217 53.6868C79.1387 52.9006 77.7012 52.5077 75.9045 52.5077C74.5567 52.5077 73.355 52.7994 72.2993 53.3836C71.2662 53.9452 70.4014 54.7647 69.7053 55.843C69.0087 56.921 68.4698 58.2239 68.088 59.7511C67.7284 61.2561 67.549 62.952 67.549 64.8387V66.1861C67.549 67.7808 67.7621 69.2632 68.1892 70.6336C68.6381 71.981 69.2897 73.1601 70.143 74.171C70.9967 75.1818 72.0298 75.9792 73.2427 76.563C74.4555 77.1246 75.8371 77.4055 77.3869 77.4055C79.3407 77.4055 81.0814 77.0122 82.609 76.2264C84.1362 75.4402 85.4614 74.3281 86.5846 72.8906L90.8633 77.0349C90.0771 78.1803 89.0551 79.2808 87.7974 80.3365C86.5397 81.3696 85.001 82.2122 83.1817 82.8634C81.3847 83.5147 79.2959 83.8406 76.915 83.8406Z" fill="url(#paint0_linear_403_8)"/>
<path d="M118.389 75.8557V58.4708C118.389 57.1682 118.153 56.0451 117.681 55.1017C117.209 54.1583 116.491 53.4284 115.525 52.9117C114.582 52.3953 113.391 52.137 111.954 52.137C110.628 52.137 109.483 52.3616 108.517 52.8109C107.551 53.2598 106.799 53.8662 106.26 54.6302C105.721 55.3938 105.452 56.2586 105.452 57.2242H97.3655C97.3655 55.7867 97.7135 54.394 98.4097 53.0466C99.1062 51.6988 100.117 50.4971 101.442 49.4414C102.767 48.3861 104.351 47.555 106.192 46.9486C108.034 46.3421 110.101 46.0389 112.392 46.0389C115.132 46.0389 117.558 46.4993 119.669 47.4201C121.803 48.3408 123.476 49.7335 124.689 51.5976C125.925 53.4395 126.542 55.753 126.542 58.5383V74.7437C126.542 76.4058 126.654 77.8997 126.879 79.2248C127.126 80.5274 127.474 81.6617 127.924 82.6277V83.1667H119.602C119.22 82.2907 118.917 81.1787 118.692 79.8313C118.49 78.4612 118.389 77.1361 118.389 75.8557ZM119.568 60.9977L119.636 66.0179H113.807C112.302 66.0179 110.977 66.1639 109.831 66.4556C108.686 66.7251 107.731 67.1295 106.968 67.6685C106.204 68.2078 105.631 68.8591 105.249 69.6227C104.867 70.3863 104.676 71.2511 104.676 72.2171C104.676 73.1827 104.901 74.0702 105.35 74.8786C105.8 75.6648 106.451 76.2824 107.305 76.7316C108.18 77.1809 109.236 77.4055 110.471 77.4055C112.133 77.4055 113.582 77.0686 114.817 76.3947C116.075 75.6986 117.064 74.856 117.783 73.8678C118.501 72.8569 118.883 71.9024 118.928 71.0039L121.556 74.6091C121.286 75.5299 120.826 76.5181 120.175 77.5738C119.523 78.6295 118.67 79.6404 117.614 80.606C116.581 81.5494 115.334 82.3245 113.874 82.9309C112.437 83.5373 110.774 83.8406 108.888 83.8406C106.507 83.8406 104.384 83.3687 102.52 82.4253C100.656 81.4597 99.1959 80.1682 98.1402 78.5509C97.0845 76.9114 96.5566 75.0584 96.5566 72.9918C96.5566 71.0602 96.9162 69.3532 97.635 67.8709C98.3763 66.3659 99.4543 65.1082 100.869 64.0974C102.307 63.0865 104.059 62.3229 106.125 61.8062C108.192 61.2672 110.55 60.9977 113.2 60.9977H119.568Z" fill="url(#paint1_linear_403_8)"/>
<path fill-rule="evenodd" clip-rule="evenodd" d="M49.0395 121.412C-17.4705 106.948 -12.3904 15.7591 47.427 6.54468L48.5943 14.122C-2.18626 21.9444 -8.16609 101.126 50.6687 113.921L49.0395 121.412Z" fill="url(#paint2_linear_403_8)"/>
<path fill-rule="evenodd" clip-rule="evenodd" d="M49.7041 99.2642C10.0626 90.6413 12.772 35.9606 48.8821 30.3965L50.0496 37.9737C22.976 42.1455 19.3669 84.8192 51.3337 91.7727L49.7041 99.2642Z" fill="url(#paint3_linear_403_8)"/>
<defs>
<linearGradient id="paint0_linear_403_8" x1="60.4999" y1="46.75" x2="91.1666" y2="83.1667" gradientUnits="userSpaceOnUse">
<stop stop-color="white"/>
<stop offset="1" stop-color="white" stop-opacity="0.7"/>
</linearGradient>
<linearGradient id="paint1_linear_403_8" x1="94.9995" y1="21.8333" x2="150.583" y2="96.5833" gradientUnits="userSpaceOnUse">
<stop stop-color="#F7E164"/>
<stop offset="1" stop-color="#EB3533"/>
</linearGradient>
<linearGradient id="paint2_linear_403_8" x1="0.554137" y1="6.20517" x2="54.2207" y2="121.795" gradientUnits="userSpaceOnUse">
<stop stop-color="white"/>
<stop offset="1" stop-color="white" stop-opacity="0.7"/>
</linearGradient>
<linearGradient id="paint3_linear_403_8" x1="22.3017" y1="30.9743" x2="53.2631" y2="97.0257" gradientUnits="userSpaceOnUse">
<stop stop-color="white"/>
<stop offset="1" stop-color="white" stop-opacity="0.7"/>
</linearGradient>
</defs>
</svg>
