<svg width="128" height="128" viewBox="0 0 128 128" fill="none" xmlns="http://www.w3.org/2000/svg">
<path d="M45.7146 41.1429C33.0909 41.1429 22.8574 51.3764 22.8574 64C22.8574 76.6237 33.0909 86.8572 45.7146 86.8572H50.286V77.7143H45.7146C38.1404 77.7143 32.0003 71.5742 32.0003 64C32.0003 56.4258 38.1404 50.2857 45.7146 50.2857H54.8574V64L73.1431 45.7143L54.8574 27.4286V41.1429H45.7146Z" fill="white"/>
<path d="M82.2854 86.8571C94.9091 86.8571 105.143 76.6236 105.143 64C105.143 51.3763 94.9091 41.1428 82.2854 41.1428H77.714V50.2857H82.2854C89.8596 50.2857 95.9997 56.4258 95.9997 64C95.9997 71.5742 89.8596 77.7143 82.2854 77.7143H73.1426V64L54.8569 82.2857L73.1426 100.571V86.8571H82.2854Z" fill="white"/>
</svg>
